<?xml version="1.0" standalone="no"?>
<svg width="2100" height="2100" viewBox="0 0 2100 2100" xmlns="http://www.w3.org/2000/svg" xmlns:xlink="http://www.w3.org/1999/xlink" version="1.1"><path d="M 841.7967364593333 50.21763143285777 C 841.6335314067 50.06232872092954 799.6346263697942 92.36232872092955 748.4658363773203 144.2176314328578 C 697.2970463848465 196.072934144786 637.6557607499385 256.725 615.9296460775248 279 C 594.2035314051111 301.275 562.6968311119067 333.675 545.9147565370706 351 C 529.1326819622345 368.325 503.0489675971425 395.33731322015 487.95094683686614 411.0273627114445 C 472.85292607658977 426.71741220273896 446.775 453.9486976324297 430 471.5413303329795 C 413.225 489.1339630335293 384.85610322853705 519.0466498133793 366.95800717452676 538.013967621535 C 349.0599111205164 556.9812854296907 322.2849111205164 585.5628379105489 307.45800717452676 601.5285286901086 C 292.63110322853703 617.4942194696683 271.2529193689269 640.6692194696683 259.9509319309487 653.0285286901086 C 248.64894449297046 665.3878379105489 231.13689396511174 684.725 221.03526409126266 696 C 210.93363421741358 707.275 194.28639029973897 726.175 184.04138871865246 738 C 173.79638713756594 749.825 160.89514697112656 764.9 155.37196612656498 771.5 C 149.8487852820034 778.1 140.1847135307006 790.025 133.89625112366986 798 C 127.6077887166391 805.975 119.48587381532414 816.775 115.8475513429699 822 C 112.20922887061565 827.225 107.12846676166063 835.325 104.55696887862541 840 C 101.98547099559019 844.675 97.92786949264824 852.775 95.54007664986551 858 C 93.15228380708278 863.225 89.54973693515647 872.225 87.53441693447371 878 C 85.51909693379095 883.775 82.59707993197296 893.675 81.04104581932262 900 C 79.48501170667228 906.325 77.38975234202911 916.675 76.38491389789334 923 C 74.99367890471497 931.7571901564947 74.5579349085556 940.1048722889021 74.55793490855564 958 C 74.55793490855568 975.8951277110971 74.99367890471514 984.2428098435057 76.3849138978934 993 C 77.38975234202914 999.325 79.48501170667228 1009.675 81.04104581932262 1016 C 82.59707993197296 1022.325 85.43865432290009 1032 87.35565557693849 1037.5 C 89.27265683097689 1043 92.69665742143648 1051.775 94.96454577795981 1057 C 97.23243413448314 1062.225 101.05363131430096 1070.1 103.45609506644382 1074.5 C 105.85855881858669 1078.9 110.6283279371163 1086.775 114.0555819965096 1092 C 117.48283605590291 1097.225 123.25444497925126 1105.325 126.88137960395039 1110 C 130.5083142286495 1114.675 138.65624980059215 1123.6987207604761 144.98790309715622 1130.052712801058 C 151.3195563937203 1136.40670484164 160.325 1144.6564424978974 165 1148.3854631482968 C 169.675 1152.114483798696 178.225 1158.3042897245857 184 1162.1405874280517 C 189.775 1165.9768851315175 200.125 1171.9786902475955 207 1175.477932130447 C 213.875 1178.9771740132985 224.225 1183.6808486225411 230 1185.9305423732085 C 235.775 1188.1802361238756 244.325 1191.1320300675418 249 1192.4900844702445 C 253.675 1193.8481388729472 261.325 1195.8537672213683 266 1196.947036355625 C 270.675 1198.0403054898816 280.125 1199.695622132124 287 1200.6255177828307 C 294.93183251714964 1201.6983580097149 306.2608878746185 1202.318688167045 318 1202.3229439380084 C 328.175 1202.3266326726498 341 1201.7708885356835 346.5 1201.0879569669723 C 352 1200.405025398261 361.675 1198.7643416192109 368 1197.4419930135277 C 374.325 1196.1196444078444 383.1 1193.9577775705404 387.5 1192.6378444861857 C 391.9 1191.317911401831 400 1188.5576588405565 405.5 1186.5039499055763 C 411 1184.450240970596 421.575 1179.6922087933856 429 1175.9305450673312 C 436.425 1172.1688813412768 447 1166.100521560279 452.5 1162.4453011095584 C 458 1158.7900806588377 466.775 1152.3736788154079 472 1148.186630346381 C 477.225 1143.999581877354 485.775 1136.2740769133613 491 1131.0188415375083 C 496.225 1125.7636061616554 503.57245988554405 1117.6469977983215 507.32768863454237 1112.9819340634333 C 511.0829173835407 1108.316870328545 517.4604685809752 1099.55 521.5000246288414 1093.5 C 525.5395806767075 1087.45 531.306361487327 1077.55 534.3150930968848 1071.5 C 537.3238247064425 1065.45 541.6653693565706 1056 543.9629700971695 1050.5 C 546.2605708377685 1045 550.4131389710374 1034.65 553.1908992822115 1027.5 C 555.9686595933856 1020.35 562.1788563937956 1003.475 566.991336616456 990 C 571.8038168391164 976.525 582.0665708757793 946.375 589.7974566979292 923 C 597.528342520079 899.625 607.677591389501 868.35 612.3513430744224 853.5 C 617.0250947593437 838.65 625.3528179431876 811.875 630.8573945940755 794 C 636.3619712449633 776.125 647.0003881104735 741.025 654.498320961876 716 C 661.9962538132784 690.975 674.6607869021442 648.225 682.6417278260224 621 C 690.6226687499005 593.775 705.855042470291 541.125 716.4914472046678 504 C 727.1278519390446 466.875 743.1056042172431 410.625 751.9975633784422 379 C 760.8895225396415 347.375 776.1935863511251 292.475 786.0065940706284 257 C 795.8196017901315 221.52499999999998 810.8196817908457 166.85000000000002 819.3401051833266 135.5 C 827.8605285758075 104.14999999999999 836.4656640677284 72.2 838.4626284987064 64.5 C 840.4595929296845 56.8 841.9599415119666 50.372934144785994 841.7967364593333 50.21763143285777 Z M 2024 538.1683443717147 C 2023.175 538.2033564527944 2021.6 538.4583521901063 2020.5 538.7350015657412 C 2019.4 539.0116509413759 1987.45 547.6977233489894 1949.5 558.0373846937708 C 1911.55 568.3770460385523 1853.5 584.3268689985961 1820.5 593.4814357160903 C 1787.5 602.6360024335847 1740.475 615.7577197357692 1716 622.6408074987228 C 1691.525 629.5238952616763 1647.2 642.0716620923996 1617.5 650.5247337892189 C 1587.8 658.9778054860382 1542.35 672.023989254867 1516.5 679.5162532755052 C 1490.65 687.0085172961433 1454.2 697.6439699356589 1435.5 703.1505924744288 C 1416.8 708.6572150131987 1383.5 718.5607736892923 1361.5 725.1585006435258 C 1339.5 731.7562275977593 1307.55 741.432841631037 1290.5 746.662087384143 C 1273.45 751.8913331372489 1243.075 761.3347340360394 1223 767.6474227147887 C 1202.925 773.9601113935379 1167.15 785.5762855455192 1143.5 793.4611430525251 C 1119.85 801.3460005595309 1090.375 811.4718618352077 1078 815.9630569984737 C 1065.625 820.4542521617396 1048.075 827.0544747041528 1039 830.6302182038364 C 1029.925 834.20596170352 1015.3 840.661498325378 1006.5 844.9758551412989 C 997.7 849.2902119572198 986.45 855.5545238419953 981.5 858.8965482185779 C 976.55 862.2385725951606 968 868.5392146863153 962.5 872.8979750878107 C 957 877.256735489306 947.9904406531873 885.4753203497058 942.4787570070829 891.1614969998102 C 936.9670733609785 896.8476736499146 929.7135810847276 904.875 926.359885282081 909 C 923.0061894794344 913.125 917.5575292006872 920.55 914.2517513293096 925.5 C 910.945973457932 930.45 905.9313027282866 938.55 903.1080385967643 943.5 C 900.2847744652421 948.45 895.9014750612935 957.225 893.3673732546564 963 C 890.8332714480193 968.775 886.8281052672339 979.35 884.4670039640221 986.5 C 882.1059026608102 993.65 879.0461668695382 1004.9 877.6675910945285 1011.5 C 876.2890153195187 1018.1 874.6836816927238 1027.55 874.1001830349841 1032.5 C 873.5166843772444 1037.45 872.753506142359 1047.125 872.4042314019056 1054 C 872.0469003915323 1061.0335767571598 872.2716946066877 1072.4037371022673 872.9182654539015 1080 C 873.5502589229527 1087.425 874.7543124839676 1097.55 875.5939400339346 1102.5 C 876.4335675839015 1107.45 878.2447623350535 1116 879.6188172587166 1121.5 C 880.9928721823798 1127 883.7128784792949 1136.225 885.6632756963057 1142 C 887.6136729133166 1147.775 892.458089870466 1159.25 896.4286467121932 1167.5 C 900.3992035539204 1175.75 906.0311811654974 1186.325 908.9441525156976 1191 C 911.8571238658978 1195.675 917.2669308016618 1203.55 920.9659457062844 1208.5 C 924.664960610907 1213.45 931.4733561970658 1221.7471425615363 936.0957136755263 1226.9380945811918 C 940.7180711539869 1232.1290466008472 948.55 1239.9398542662527 953.5 1244.2954449487595 C 958.45 1248.6510356312663 965.875 1254.746150798982 970 1257.8401453214608 C 974.125 1260.9341398439396 981.55 1266.0064569053998 986.5 1269.1119610135943 C 991.45 1272.2174651217888 1000.45 1277.2553695374454 1006.5 1280.307304159498 C 1012.55 1283.3592387815506 1022.9 1287.9464843521168 1029.5 1290.5011832052007 C 1036.1 1293.0558820582846 1047.35 1296.6591178051297 1054.5 1298.5083737537452 C 1061.65 1300.3576297023606 1071.775 1302.56629398544 1077 1303.416516605033 C 1082.225 1304.266739224626 1092.8 1305.4637195086548 1100.5 1306.0764727917635 C 1108.2023995364948 1306.6894170260236 1119.897943254433 1306.8964121367453 1126.5 1306.5366371935695 C 1133.1 1306.176974331454 1144.575 1305.0093859650906 1152 1303.9419963794287 C 1159.425 1302.8746067937668 1170.675 1300.6483095418557 1177 1298.9946691529594 C 1183.325 1297.3410287640631 1193.225 1294.312559907212 1199 1292.2647383599572 C 1204.775 1290.2169168127023 1215.8 1285.4527596026317 1223.5 1281.6777223375784 C 1231.2 1277.9026850725252 1240.65 1272.776786006955 1244.5 1270.2868355252003 C 1248.35 1267.7968850434456 1258.25 1260.6960722853876 1266.5 1254.5072516184046 C 1274.75 1248.3184309514215 1291.175 1235.1692790731952 1303 1225.2869141112346 C 1314.825 1215.4045491492743 1334.175 1198.8396377731247 1346 1188.475999942013 C 1357.825 1178.1123621109011 1376.275 1161.7328321866244 1387 1152.077044554731 C 1397.725 1142.4212569228375 1417.75 1124.205812398081 1431.5 1111.5982789441607 C 1445.25 1098.9907454902404 1472.684005315131 1073.561005405746 1492.4644562558462 1055.087745423062 C 1512.2449071965616 1036.6144854403778 1542.1699071965618 1008.4788902095636 1558.9644562558462 992.5642004656968 C 1575.7590053151307 976.64951072183 1610.1896543442392 943.7995107218301 1635.477009653865 919.5642004656968 C 1660.7643649634908 895.3288902095635 1696.0893649634909 861.3253131026278 1713.977009653865 844.0006957836173 C 1731.8646543442392 826.6760784646068 1763.8067527237379 795.6260784646068 1784.9594504971956 775.0006957836173 C 1806.112148270653 754.3753131026277 1848.637148270653 712.689687963712 1879.4594504971956 682.3659732526934 C 1910.281752723738 652.0422585416748 1955.75 607.1783129012325 1980.5 582.6683162739328 C 2005.25 558.1583196466331 2024.825 538.1333322906349 2024 538.1683443717147 Z M 809.5 1561.5370935768221 C 800.7 1561.33815544085 791.925 1561.3588743816374 790 1561.5831356674607 C 788.075 1561.807396953284 782.225 1562.4790639451576 777 1563.0757289827352 C 771.775 1563.672394020313 762.325 1565.2399152794526 756 1566.5591095586014 C 749.675 1567.87830383775 739.325 1570.5947116289005 733 1572.5955713167139 C 726.675 1574.5964310045272 716.325 1578.4554205512477 710 1581.1711036427596 C 703.675 1583.8867867342717 694.675 1588.192298715795 690 1590.7389080461448 C 685.325 1593.285517376495 676.55 1598.7177855046498 670.5 1602.8106149976002 C 664.45 1606.9034444905508 656.125 1612.9942684863415 652 1616.345779432691 C 647.875 1619.6972903790404 639.55 1627.4152114281753 633.5 1633.4967150974355 C 627.45 1639.5782187666957 619.575 1648.2819795286343 616 1652.8384056795212 C 612.425 1657.3948318304083 606.4292081322217 1665.707683068788 602.6760180716036 1671.3114084314761 C 598.9228280109855 1676.9151337941644 592.3748299552475 1688.475 588.1249112810746 1697 C 583.4253014138851 1706.4270448894147 578.389393394532 1718.5729551105853 575.2717660035938 1728 C 572.4524547751524 1736.525 569.2348544533091 1747.775 568.1215430661643 1753 C 567.0082316790196 1758.225 565.3676118619293 1767.9 564.475721250408 1774.5 C 563.4581804130056 1782.0298130063306 562.8541019567332 1793.5777960733099 562.8541019567332 1805.5 C 562.8541019567332 1817.3311343114894 563.4616119017943 1829.027704645375 564.4642156703519 1836.5 C 565.3497782128421 1843.1 567.226567871389 1853.675 568.6348593560115 1860 C 570.0431508406341 1866.325 572.7763505127241 1876.225 574.7086364051004 1882 C 576.6409222974765 1887.775 579.958890822066 1896.55 582.0818997930769 1901.5 C 584.2049087640877 1906.45 588.4643963753479 1915.225 591.5474278180995 1921 C 594.6304592608511 1926.775 599.9911394135123 1935.775 603.4600503795688 1941 C 606.9289613456252 1946.225 612.6691749929468 1954.1 616.2160807069498 1958.5 C 619.7629864209529 1962.9 626.2739930550953 1970.325 630.6849843383774 1975 C 635.0959756216595 1979.675 643.3046237555106 1987.325 648.9264246358244 1992 C 654.5482255161382 1996.675 663.2771076059335 2003.3414900401592 668.3239403909248 2006.8144223114646 C 673.3707731759162 2010.2873545827701 681.775 2015.5641934048708 687 2018.5407308050212 C 692.225 2021.5172682051718 701.1125 2025.9882781650128 706.75 2028.4763084935566 C 712.3875 2030.9643388221004 722.0625 2034.7387596745668 728.25 2036.8639103879261 C 734.4375 2038.9890611012854 744.45 2041.8944947960822 750.5 2043.3204297096968 C 756.55 2044.7463646233114 766.9 2046.6953330648846 773.5 2047.6514706909709 C 781.760853403529 2048.8482150489554 791.5761132192654 2049.378921533455 805 2049.3546608841575 C 819.1614679142823 2049.3290672232292 828.8803340190505 2048.730493609464 840.5 2047.168257340822 C 849.3 2045.9851184118213 864.6 2043.6830458602337 874.5 2042.0525405595163 C 884.4 2040.4220352587988 904.425 2036.8340680125093 919 2034.0792800122063 C 933.575 2031.3244920119034 959.675 2026.1125790315937 977 2022.4972511670735 C 994.325 2018.8819233025536 1025.6 2012.14647512812 1046.5 2007.529588557221 C 1067.4 2002.912701986322 1102.275 1995.0313265039476 1124 1990.0154208186111 C 1145.725 1984.9995151332746 1176.775 1977.744005612297 1193 1973.8920663275499 C 1209.225 1970.0401270428029 1242.075 1962.1553015729346 1266 1956.3702319500649 C 1289.925 1950.5851623271951 1339.2 1938.5038351637536 1375.5 1929.5228382535279 C 1411.8 1920.5418413433024 1471.875 1905.4684366610986 1509 1896.0263834041862 C 1546.125 1886.584330147274 1603.5 1871.888565204983 1636.5 1863.3691279768732 C 1669.5 1854.8496907487636 1726.2 1840.0561238678067 1762.5 1830.4945349080806 C 1798.8 1820.9329459483545 1834.6690458124842 1811.3976164741482 1842.2089906944093 1809.3049138542892 C 1849.7489355763344 1807.2122112344302 1855.8239355763344 1805.4022532146296 1855.7089906944093 1805.282784921399 C 1855.5940458124842 1805.1633166281683 1852.35 1804.180711103426 1848.5 1803.099217088638 C 1844.65 1802.0177230738502 1811.575 1793.2563668638343 1775 1783.629536621936 C 1738.425 1774.0027063800378 1681.5 1759.1525060050824 1648.5 1750.6290913442572 C 1615.5 1742.1056766834322 1564.65 1729.0511375815468 1535.5 1721.6190044511784 C 1506.35 1714.18687132081 1449.2 1699.805241186884 1408.5 1689.6598263757867 C 1367.8 1679.5144115646895 1313.8 1666.1808317437467 1288.5 1660.029648995914 C 1263.2 1653.8784662480812 1223.825 1644.4112521386496 1201 1638.9913954193999 C 1178.175 1633.5715387001499 1139.925 1624.6370010557907 1116 1619.136867320824 C 1092.075 1613.6367335858574 1059.225 1606.208800962028 1043 1602.630350378981 C 1026.775 1599.0518997959339 999.55 1593.1930916238675 982.5 1589.610776663278 C 965.45 1586.028461702689 940.7 1581.025558393515 927.5 1578.493213754003 C 914.3 1575.9608691144908 893.15 1572.135701471398 880.5 1569.992841213797 C 867.85 1567.8499809561959 850.3 1565.1521968699371 841.5 1563.9977654665558 C 832.7 1562.8433340631746 818.3 1561.7360317127943 809.5 1561.5370935768221 Z " fill="#ffffff"></path></svg>
