<?xml version="1.0" standalone="no"?>
<!DOCTYPE svg PUBLIC "-//W3C//DTD SVG 20010904//EN"
 "http://www.w3.org/TR/2001/REC-SVG-20010904/DTD/svg10.dtd">
<svg version="1.0" xmlns="http://www.w3.org/2000/svg"
 width="900.000000pt" height="900.000000pt" viewBox="0 0 900.000000 900.000000"
 preserveAspectRatio="xMidYMid meet">
<metadata>
Created by potrace 1.10, written by Peter Selinger 2001-2011
</metadata>
<g transform="translate(0.000000,900.000000) scale(0.100000,-0.100000)"
fill="#ffffff" stroke="none">
<path d="M2480 8598 c-6 -13 -20 -39 -31 -58 -12 -19 -32 -55 -46 -80 -13 -25
-33 -58 -43 -75 -19 -31 -26 -43 -74 -130 -15 -27 -36 -63 -46 -80 -10 -16
-30 -50 -43 -75 -14 -25 -34 -61 -46 -80 -11 -19 -24 -42 -28 -50 -4 -8 -21
-40 -39 -70 -63 -108 -95 -165 -110 -195 -8 -16 -23 -43 -34 -60 -11 -16 -31
-52 -45 -80 -14 -27 -35 -63 -45 -80 -10 -16 -31 -52 -45 -80 -14 -27 -35 -66
-47 -85 -11 -19 -31 -55 -45 -80 -13 -25 -32 -58 -42 -75 -10 -16 -37 -66 -61
-110 -24 -44 -51 -93 -61 -110 -10 -16 -27 -48 -39 -70 -22 -39 -45 -82 -107
-195 -30 -54 -47 -86 -109 -198 -17 -32 -43 -79 -58 -107 -103 -189 -129 -236
-152 -280 -14 -27 -41 -77 -59 -110 -18 -33 -52 -96 -75 -140 -23 -44 -70
-134 -105 -200 -171 -326 -402 -799 -448 -920 -38 -102 -45 -124 -61 -187 -22
-89 -22 -338 -1 -422 24 -94 47 -169 61 -196 7 -14 22 -45 34 -70 28 -60 36
-72 101 -160 82 -108 200 -213 305 -270 21 -11 46 -25 54 -29 150 -84 374
-124 583 -103 236 23 437 115 611 281 167 160 279 373 306 581 32 242 60 575
60 710 1 52 5 151 10 220 6 69 14 303 20 520 5 217 14 530 19 695 6 165 13
756 17 1313 6 940 6 1012 -10 1012 -9 0 -21 -10 -26 -22z"/>
<path d="M7825 7884 c-49 -30 -99 -59 -110 -65 -11 -5 -33 -18 -50 -29 -16
-11 -37 -23 -45 -27 -17 -8 -257 -148 -280 -163 -8 -6 -24 -15 -35 -20 -11 -6
-33 -19 -50 -30 -16 -11 -36 -23 -44 -27 -16 -7 -356 -207 -381 -223 -8 -6
-24 -15 -35 -20 -11 -6 -33 -19 -50 -30 -16 -11 -39 -24 -50 -30 -11 -6 -33
-19 -50 -30 -16 -11 -39 -24 -50 -30 -11 -6 -33 -19 -50 -30 -16 -11 -39 -24
-50 -30 -11 -6 -33 -19 -50 -30 -16 -11 -39 -24 -50 -30 -11 -6 -33 -19 -50
-30 -16 -11 -39 -24 -50 -30 -11 -6 -33 -19 -50 -30 -16 -11 -39 -24 -50 -30
-11 -6 -33 -19 -50 -30 -16 -11 -39 -24 -50 -30 -11 -6 -33 -19 -50 -30 -16
-11 -39 -24 -50 -30 -11 -6 -33 -19 -50 -30 -16 -11 -39 -24 -50 -30 -11 -6
-33 -19 -50 -30 -16 -11 -39 -24 -50 -30 -11 -6 -32 -18 -47 -28 -14 -9 -81
-51 -148 -92 -67 -41 -134 -83 -148 -92 -15 -10 -36 -22 -47 -28 -11 -6 -32
-18 -47 -28 -15 -9 -59 -37 -98 -62 -39 -25 -83 -53 -98 -62 -15 -10 -36 -22
-47 -28 -11 -5 -54 -33 -95 -60 -41 -28 -82 -53 -90 -57 -8 -4 -43 -26 -78
-50 -35 -24 -65 -43 -67 -43 -1 0 -53 -34 -115 -75 -62 -41 -114 -75 -117 -75
-3 0 -22 -12 -42 -27 -20 -16 -44 -32 -53 -38 -92 -55 -365 -260 -424 -319
-45 -46 -120 -140 -151 -191 -43 -70 -99 -203 -113 -270 -5 -22 -14 -56 -20
-75 -5 -19 -10 -107 -10 -196 0 -127 4 -177 20 -237 29 -116 47 -167 82 -227
4 -8 12 -24 17 -36 44 -100 219 -295 330 -368 57 -37 88 -54 174 -97 27 -14
103 -39 185 -60 58 -16 108 -20 230 -20 157 0 249 13 330 47 18 8 37 14 42 14
10 0 143 63 175 83 54 33 145 106 191 151 67 68 306 391 379 514 6 9 42 64 80
122 39 58 72 110 75 115 3 6 23 37 45 70 45 67 61 93 71 115 4 8 26 41 49 75
23 33 44 67 48 75 4 8 15 27 25 42 9 15 37 59 62 98 25 39 53 83 62 98 10 15
22 36 28 47 6 11 18 32 28 47 9 15 51 82 92 148 41 67 83 134 92 148 10 15 22
36 27 47 5 11 20 36 33 55 13 19 27 42 31 50 4 8 16 29 27 45 11 17 24 39 30
50 6 11 19 34 30 50 11 17 24 39 30 50 6 11 19 34 30 50 11 17 24 39 30 50 6
11 19 34 30 50 11 17 24 39 30 50 6 11 19 34 30 50 11 17 24 39 30 50 6 11 19
34 30 50 11 17 24 39 30 50 6 11 19 34 30 50 11 17 24 39 30 50 6 11 19 34 30
50 11 17 24 39 29 50 5 11 21 37 35 58 14 21 26 40 26 41 0 2 40 71 88 153 48
81 91 155 95 163 4 8 16 29 27 45 11 17 24 39 30 50 6 11 19 34 30 50 11 17
23 37 27 45 4 8 39 69 78 135 39 66 74 127 78 135 4 8 16 29 27 45 11 17 23
37 27 45 4 8 26 48 50 88 24 40 43 74 43 77 0 2 14 24 30 48 56 84 39 86 -85
11z"/>
<path d="M7265 2514 c-616 -7 -1223 -17 -1350 -23 -126 -6 -304 -11 -395 -11
-91 0 -237 -5 -325 -10 -88 -6 -252 -15 -365 -20 -345 -15 -652 -45 -775 -77
-222 -56 -426 -194 -568 -383 -52 -69 -58 -79 -100 -165 -67 -136 -93 -226
-106 -368 -9 -106 7 -316 27 -354 7 -12 12 -31 12 -42 0 -22 13 -54 67 -166
41 -85 47 -95 100 -165 57 -75 109 -129 168 -176 28 -21 52 -42 53 -46 2 -5 8
-8 12 -8 5 0 26 -12 47 -26 21 -14 47 -30 58 -35 11 -5 27 -13 35 -18 51 -28
127 -56 224 -81 62 -17 110 -21 235 -21 263 0 317 19 926 323 154 77 334 168
400 203 66 35 156 82 200 105 44 23 107 57 140 75 33 18 83 45 110 59 28 14
79 42 115 62 36 20 94 52 130 71 36 20 88 48 115 63 28 15 82 44 120 65 39 21
84 46 100 56 17 10 53 30 80 44 28 14 64 34 80 44 17 9 66 37 110 61 44 24 94
51 110 61 17 10 50 29 75 42 25 14 61 34 80 45 19 12 58 33 85 47 28 14 64 35
80 45 17 10 53 31 80 45 28 14 73 39 100 56 28 16 64 37 80 45 17 8 44 23 60
34 17 11 53 31 80 45 28 14 64 35 80 45 31 19 42 26 130 74 28 15 64 36 80 46
17 11 44 26 60 34 17 8 53 29 80 45 28 17 57 34 65 38 8 4 47 25 85 48 39 22
77 44 85 48 8 4 29 16 45 26 17 11 53 32 80 47 97 52 85 64 -63 62 -64 0 -621
-7 -1237 -14z"/>
</g>
</svg>
